<svg id="Layer_1" data-name="Layer 1" xmlns="http://www.w3.org/2000/svg" viewBox="0 0 260.93 282.25"><path d="M243.64,265.62q-2.2,0-5,3.09t-8.09,3.09a14.21,14.21,0,0,1-7.22-2.06,53.89,53.89,0,0,1-4.68-3.24A130.41,130.41,0,0,0,204.27,36.43q7-8,13.16-8,3.39,0,10.16,3.39a6.7,6.7,0,0,0,3.24.88q3.39,0,3.39-2.65a4.09,4.09,0,0,0-2.07-3.24L217.43,14.73Q211,9.87,206.83,9.87t-8.1,4q-6.06,5.57-12.68,15.89a130.33,130.33,0,0,0-35.55-4.92C78.56,24.82,20,83.35,20,155.29S78.56,285.75,150.5,285.75a129.7,129.7,0,0,0,50.61-10.22q13.33,16.59,21.33,16.59,8.38,0,22.08-21.2a5.81,5.81,0,0,0,1.18-3.1C245.7,266.35,245,265.62,243.64,265.62Zm28.82-110.33A122,122,0,0,1,212,260.57q-21.78-22.2-39.62-77.26Q184,160.93,200.2,149.15a6.88,6.88,0,0,1,3.54-1.62q2.2,0,1.91,3.69-1.47,15.6-7.65,20.9c-1.77.69-2.65,1.67-2.65,2.95q0,3.09,8.39,6a21.16,21.16,0,0,0,6.48,1.62c2,0,3.83-1.62,5.59-4.85a81.29,81.29,0,0,0,7.95-21.5,31.21,31.21,0,0,0,.59-5.3q0-6.33-10.6-10.6-6.78-7.22-9.28-7.22t-7.06,3.54q-12.81,10-32.84,39.16-10,1.92-10,5.45a37.18,37.18,0,0,0,1.62,6Q143.67,207.75,140.13,215q17.37-104,57-168.58c.65-1,1.28-2,1.92-3A122.14,122.14,0,0,1,272.46,155.29Zm-122,122a122,122,0,1,1,31-239.93q-9.21,16.16-19.42,41-27.24,66.25-44.17,159.75-1.77,9.13-1.77,9.87,0,5.45,12.22,10.75a13.07,13.07,0,0,0,3.54,1q2.21,0,3.83-6.48,6.76-29,24.29-50.65a307.26,307.26,0,0,0,32.91,61.91c1,1.4,1.92,2.73,2.85,4A121.26,121.26,0,0,1,150.5,277.25Z" transform="translate(-20.03 -9.87)" style="fill:#fff"/></svg>